<?xml version="1.0" encoding="UTF-8"?>
<svg width="80px" height="80px" viewBox="0 0 80 80" version="1.1" xmlns="http://www.w3.org/2000/svg" xmlns:xlink="http://www.w3.org/1999/xlink">
    <title>Slice</title>
    <defs>
        <linearGradient x1="50%" y1="0%" x2="50%" y2="100%" id="linearGradient-1">
            <stop stop-color="#FF8300" offset="0%"></stop>
            <stop stop-color="#E75E80" offset="100%"></stop>
        </linearGradient>
        <path d="M30.41,75.5 L30.41,65.924 C25.85,64.86 22.278,62.542 19.694,58.97 C17.11,55.398 15.818,51.0533333 15.818,45.936 L15.818,45.936 L15.818,31.42 C15.818,28.836 16.16,26.4166667 16.844,24.162 C17.528,21.9073333 18.4906667,19.906 19.732,18.158 C20.9733333,16.41 22.4933333,14.9406667 24.292,13.75 C26.0906667,12.5593333 28.13,11.6853333 30.41,11.128 L30.41,11.128 L30.41,1.78 C26.6606667,2.74266667 23.2913333,4.14866667 20.302,5.998 C17.3126667,7.84733333 14.7793333,10.0513333 12.702,12.61 C10.6246667,15.1686667 9.04133333,18.0313333 7.952,21.198 C6.86266667,24.3646667 6.318,27.772 6.318,31.42 L6.318,31.42 L6.318,45.936 C6.318,53.384 8.408,59.6666667 12.588,64.784 C16.768,69.9013333 22.7086667,73.4733333 30.41,75.5 L30.41,75.5 Z M50.74,75.5 C58.492,73.4733333 64.458,69.9013333 68.638,64.784 C72.818,59.6666667 74.908,53.384 74.908,45.936 L74.908,45.936 L74.908,31.42 C74.908,27.772 74.3506667,24.3646667 73.236,21.198 C72.1213333,18.0313333 70.5253333,15.1686667 68.448,12.61 C66.3706667,10.0513333 63.8373333,7.84733333 60.848,5.998 C57.8586667,4.14866667 54.4893333,2.74266667 50.74,1.78 L50.74,1.78 L50.74,11.128 C53.02,11.6853333 55.0593333,12.5593333 56.858,13.75 C58.6566667,14.9406667 60.1893333,16.41 61.456,18.158 C62.7226667,19.906 63.698,21.9073333 64.382,24.162 C65.066,26.4166667 65.408,28.836 65.408,31.42 L65.408,31.42 L65.408,45.936 C65.408,48.4693333 65.066,50.838 64.382,53.042 C63.698,55.246 62.7226667,57.2093333 61.456,58.932 C60.1893333,60.6546667 58.6566667,62.1113333 56.858,63.302 C55.0593333,64.4926667 53.02,65.3666667 50.74,65.924 L50.74,65.924 L50.74,75.5 Z" id="path-2"></path>
        <path d="M56.4,34.35 L56.4,26.23 L25.6,26.23 L25.6,34.35 L56.4,34.35 Z M56.4,51.5 L56.4,43.45 L25.6,43.45 L25.6,51.5 L56.4,51.5 Z" id="path-3"></path>
    </defs>
    <g id="Page-1" stroke="none" stroke-width="1" fill="none" fill-rule="evenodd">
        <g id="()" fill-rule="nonzero">
            <use fill="#FFFFFF" xlink:href="#path-2"></use>
            <use fill="url(#linearGradient-1)" xlink:href="#path-2"></use>
        </g>
        <g id="=" fill-rule="nonzero">
            <use fill="#FFFFFF" xlink:href="#path-3"></use>
            <use fill="#3AD7FF" xlink:href="#path-3"></use>
        </g>
    </g>
</svg>